<svg xmlns="http://www.w3.org/2000/svg" width="1200" height="825" viewBox="0 0 1200 825" role="img" aria-labelledby="title desc" lang="en"><title id="title">cross-task-memory</title><desc id="desc">The agent maintains past experience through context transactions in a cognitive graph, then reads or recalls it for new tasks. ME-07 task completion: Morphz 81.33%, Letta 62.00%, Mem0-backed reference agent 64.00%. Each system attempted 150 held-out tasks once.</desc><defs><marker id="arrow" markerWidth="9" markerHeight="9" refX="7" refY="4.5" orient="auto"><path d="M1 1L7 4.5L1 8" fill="none" stroke="#56d0de" stroke-width="1.5"/></marker></defs><g font-family="Arial, 'Hiragino Sans GB', 'PingFang SC', 'Microsoft YaHei', sans-serif"><rect width="1200" height="825" fill="#0c1419"/><text x="48" y="65" font-size="38" fill="#eef5f6" font-weight="600" text-anchor="start">Experience carries into new tasks</text><text x="48" y="790" font-size="25" fill="#afc1ca" font-weight="400" text-anchor="start">Source: public ME-07 report · 150 held-out tasks per system, one attempt each.</text><rect x="48" y="132" width="300" height="137" rx="18" fill="#16252d" stroke="#37515c" stroke-width="1.5"/><text x="72" y="177" font-size="27" fill="#eef5f6" font-weight="600" text-anchor="start">Past tasks</text><text x="72" y="231" font-size="23" fill="#afc1ca" font-weight="400" text-anchor="start">Observations / outcomes</text><rect x="450" y="132" width="300" height="137" rx="18" fill="#17333d" stroke="#488997" stroke-width="1.5"/><text x="474" y="177" font-size="27" fill="#eef5f6" font-weight="600" text-anchor="start">Cognitive graph</text><text x="474" y="231" font-size="23" fill="#afc1ca" font-weight="400" text-anchor="start">Frames / Links / Sources</text><rect x="852" y="132" width="300" height="137" rx="18" fill="#16252d" stroke="#37515c" stroke-width="1.5"/><text x="876" y="177" font-size="27" fill="#eef5f6" font-weight="600" text-anchor="start">New tasks</text><text x="876" y="231" font-size="23" fill="#afc1ca" font-weight="400" text-anchor="start">Read / recall experience</text><path d="M352 200L443 200" fill="none" stroke="#56d0de" stroke-width="2.5" stroke-linejoin="round" marker-end="url(#arrow)"/><text x="398" y="182" font-size="19" fill="#56d0de" font-weight="400" text-anchor="middle">context_tx</text><path d="M754 200L845 200" fill="none" stroke="#56d0de" stroke-width="2.5" stroke-linejoin="round" marker-end="url(#arrow)"/><text x="800" y="182" font-size="23" fill="#56d0de" font-weight="400" text-anchor="middle">Reuse</text><rect x="48" y="322" width="1104" height="410" rx="18" fill="#16252d" stroke="#37515c" stroke-width="1.5"/><text x="76" y="366" font-size="26" fill="#afc1ca" font-weight="500" text-anchor="start">ME-07 · STATE-Bench</text><text x="76" y="465" font-size="75" fill="#56d0de" font-weight="700" text-anchor="start">81.33%</text><text x="76" y="510" font-size="28" fill="#eef5f6" font-weight="500" text-anchor="start">Morphz task completion</text><text x="76" y="552" font-size="27" fill="#afc1ca" font-weight="400" text-anchor="start">122 / 150</text><text x="600" y="378" font-size="25" fill="#56d0de" font-weight="600" text-anchor="start">Morphz</text><rect x="600" y="395" width="350" height="18" rx="4" fill="#293d46"/><rect x="600" y="395" width="284.655" height="18" rx="4" fill="#56d0de"/><text x="995" y="407" font-size="29" fill="#56d0de" font-weight="600" text-anchor="start">81.33%</text><text x="600" y="472" font-size="25" fill="#afc1ca" font-weight="400" text-anchor="start">Letta</text><rect x="600" y="489" width="350" height="18" rx="4" fill="#293d46"/><rect x="600" y="489" width="217" height="18" rx="4" fill="#708d9a"/><text x="995" y="501" font-size="29" fill="#eef5f6" font-weight="600" text-anchor="start">62.00%</text><text x="600" y="566" font-size="25" fill="#afc1ca" font-weight="400" text-anchor="start">Mem0-backed reference</text><rect x="600" y="583" width="350" height="18" rx="4" fill="#293d46"/><rect x="600" y="583" width="224" height="18" rx="4" fill="#708d9a"/><text x="995" y="595" font-size="29" fill="#eef5f6" font-weight="600" text-anchor="start">64.00%</text><text x="600" y="649" font-size="21" fill="#afc1ca" font-weight="400" text-anchor="start">0</text><text x="775" y="649" font-size="21" fill="#afc1ca" font-weight="400" text-anchor="middle">50</text><text x="950" y="649" font-size="21" fill="#afc1ca" font-weight="400" text-anchor="end">100%</text><text x="76" y="700" font-size="25" fill="#afc1ca" font-weight="400" text-anchor="start">Same historical tasks · Same GPT-5.6 Sol model</text></g></svg>